<?xml version="1.0" encoding="UTF-8"?>
<svg id="Layer_2" data-name="Layer 2" xmlns="http://www.w3.org/2000/svg" viewBox="0 0 745.56 125.68">
  <defs>
    <style>
      .cls-1 {
        fill: #fff;
        stroke-width: 0px;
      }
    </style>
  </defs>
  <g id="Layer_1-2" data-name="Layer 1">
    <path class="cls-1" d="m743.57,1.99v121.7H1.99V1.99h741.58m1.99-1.99H0v125.68h745.56V0h0Z"/>
    <path class="cls-1" d="m85.17,23.58c.01.13-.03.23-.13.3-2,1.53-3.45,3.37-4.36,5.51-.05.13-.15.21-.28.27-.13.05-.26.04-.39-.01-4.95-2.22-9.98-3.35-15.09-3.4-2.4-.03-4.59.16-6.55.55-11.03,2.22-19.32,8.12-24.87,17.71-2.75,4.77-4.29,10.15-4.59,16.12-.11,2.16,0,4.35.37,6.59,1.42,8.93,5.48,16.29,12.21,22.08,6.21,5.35,14.09,8.3,22.37,8.47,3.37.06,6.59-.28,9.66-1.05l3.64,7.14c-1.44.44-2.91.81-4.42,1.11-3.68.73-7.15.98-10.43.75-10.37-.74-19.39-4.57-27.04-11.5-11.6-10.48-16.48-26.43-13.19-41.56,2.84-13.11,11.55-23.81,23.34-29.75,5.76-2.9,11.96-4.41,18.61-4.52,7.39-.13,14.38,1.51,20.96,4.93.11.05.17.14.18.26Zm23.02,34.33c-.23-1.52-.37-3.05-.68-4.54-.7-3.4-1.78-6.72-3.25-9.98-.02-.06-.07-.1-.13-.1-.07-.01-.12.01-.16.06-1.67,2.04-3.72,3.48-6.16,4.33-.07.03-.14.09-.17.16-.03.08-.03.16,0,.24,2.59,6.11,3.41,12.44,2.49,19-1.22,8.72-5.72,16.86-12.62,22.52-.61.5-1.23.98-1.86,1.43l3.62,7.08c9.18-6.24,15.75-15.83,18.2-27.27.4-1.86.53-3.64.79-5.49.21-1.4.13-2.84.15-4.29,0-1.04-.06-2.1-.22-3.15Zm-5.84-23.11c0,.59-.06,1.18-.17,1.77-.12.58-.29,1.15-.52,1.69-.23.55-.51,1.07-.84,1.56-.33.49-.7.95-1.12,1.37s-.88.8-1.37,1.13c-.49.33-1.02.61-1.56.83-.55.23-1.11.4-1.7.52s-1.17.18-1.77.18-1.18-.06-1.76-.18-1.15-.29-1.7-.52c-.55-.22-1.07-.51-1.56-.83s-.95-.7-1.37-1.13-.79-.88-1.13-1.37c-.33-.49-.61-1.02-.83-1.56-.23-.55-.4-1.11-.52-1.69-.11-.58-.17-1.17-.17-1.77s.06-1.18.17-1.77c.11-.58.29-1.15.52-1.69.22-.55.51-1.07.83-1.56.33-.49.71-.95,1.13-1.37s.88-.8,1.37-1.13,1.02-.61,1.56-.84c.55-.22,1.11-.4,1.7-.51.58-.12,1.17-.18,1.76-.18s1.18.06,1.77.18c.58.11,1.15.29,1.7.51.55.23,1.07.51,1.56.84.49.33.95.7,1.37,1.13s.79.88,1.12,1.37c.33.49.61,1.01.84,1.56.22.55.4,1.11.52,1.69.11.58.17,1.17.17,1.77Z"/>
    <path class="cls-1" d="m84.58,62.06c0,1.3-.13,2.6-.38,3.87-.25,1.28-.64,2.52-1.14,3.73-.49,1.21-1.1,2.35-1.83,3.43-.72,1.09-1.55,2.09-2.47,3.01-.16.16-.32.32-.49.47l-4.33-8.48c-.81-1.58-2.21-2.78-3.9-3.32-1.69-.55-3.53-.4-5.11.4-1.58.81-2.78,2.22-3.33,3.91-.55,1.69-.4,3.52.41,5.11l3.93,7.69c-.4.03-.81.04-1.22.04-1.31,0-2.6-.12-3.88-.38-1.28-.25-2.53-.63-3.73-1.13-1.21-.5-2.35-1.11-3.44-1.84-1.08-.72-2.08-1.54-3.01-2.47-.92-.92-1.74-1.92-2.46-3.01-.73-1.08-1.34-2.22-1.84-3.43-.5-1.21-.88-2.45-1.13-3.73-.25-1.27-.38-2.57-.38-3.87s.13-2.6.38-3.88c.25-1.28.63-2.52,1.13-3.73.5-1.2,1.11-2.35,1.84-3.43.72-1.08,1.54-2.09,2.46-3.01.93-.92,1.93-1.74,3.01-2.47,1.09-.73,2.23-1.34,3.44-1.84,1.2-.5,2.45-.87,3.73-1.13,1.28-.25,2.57-.38,3.88-.38s2.59.13,3.87.38c1.28.26,2.52.63,3.72,1.13,1.21.5,2.35,1.11,3.44,1.84,1.09.73,2.09,1.55,3.01,2.47.92.92,1.75,1.93,2.47,3.01.73,1.08,1.34,2.23,1.83,3.43.5,1.21.89,2.45,1.14,3.73.25,1.28.38,2.58.38,3.88Z"/>
    <path class="cls-1" d="m192.94,106.7c-2.17,0-3.72-.14-4.67-.42-.93-.27-1.67-.87-2.21-1.81-.35-.54-.56-1.14-.63-1.77-.06-.64-.08-1.94-.08-3.9v-8.29h-7.19c-3.64,0-6.66-.42-9.06-1.25-2.39-.84-4.26-2.34-5.6-4.5-1.35-2.17-2.29-5.14-2.83-8.92-.54-3.78-.81-8.56-.81-14.35v-12.15c0-4.92.3-9.06.92-12.44.61-3.38,1.63-6.09,3.04-8.15,1.42-2.05,3.3-3.52,5.65-4.4,2.36-.88,5.26-1.31,8.71-1.31h7.69c4.04,0,7.29.59,9.75,1.77,2.47,1.18,4.28,3.05,5.42,5.6.54,1.16.98,2.32,1.31,3.5.34,1.18.61,2.53.81,4.04.21,1.52.36,3.27.46,5.27.09,1.99.15,4.39.15,7.21v16c0,6.27-.63,11.2-1.88,14.81-1.24,3.61-3.18,6.19-5.81,7.73v3.85c0,1.94.98,2.92,2.94,2.92h4.75v10.94h-10.81Zm-7.29-64.33c0-3.57-1.24-5.35-3.73-5.35-1.22,0-2.19.49-2.9,1.48-.71.97-1.06,2.27-1.06,3.88v29.02c0,1.7.35,3.02,1.06,3.96.71.95,1.67,1.42,2.9,1.42,2.48,0,3.73-1.79,3.73-5.38v-29.02Z"/>
    <path class="cls-1" d="m227.72,90.52c-4.45,0-7.8-.18-10.06-.54-2.25-.38-3.92-1.03-5-1.98-1.08-.94-1.89-2.31-2.4-4.1-.5-1.79-.75-4.17-.75-7.13V23.06h18.1v47.13c0,4.11,1.25,6.17,3.75,6.17s3.85-2.05,3.85-6.17V23.06h18.1v53.71c0,2.96-.26,5.33-.77,7.13-.5,1.79-1.29,3.16-2.38,4.1-1.08.95-2.77,1.6-5.06,1.98-2.29.36-5.63.54-10,.54h-7.4Z"/>
    <path class="cls-1" d="m259.78,23.06h18.1v67.46h-18.1V23.06Z"/>
    <path class="cls-1" d="m296.71,37.73h-15.08l2.13-14.67h34.79l-15.06,52.79h16.19l-2.02,14.67h-36.21l15.27-52.79Z"/>
    <path class="cls-1" d="m323.3,23.06h29.23c3.18,0,5.65.17,7.4.5s3.03.88,3.83,1.63c1.22,1.07,2.11,2.85,2.69,5.35.57,2.5.85,5.87.85,10.1v5.06c0,4.25-.31,7.83-.92,10.73-.6,2.91-1.44,4.83-2.52,5.77-.47.41-.95.74-1.42,1.02-.47.27-1.06.47-1.77.6-.71.13-1.58.21-2.63.25-1.04.03-2.38.04-4,.04h-12.65v26.4h-18.1V23.06Zm18.1,14.67v11.73h3.04c1.75,0,2.96-.4,3.63-1.21.68-.82,1.02-2.3,1.02-4.46,0-2.29-.37-3.88-1.1-4.75-.74-.88-2.08-1.31-4.04-1.31h-2.54Z"/>
    <path class="cls-1" d="m371.44,23.06h27.63c2.29,0,4.11.02,5.46.06,1.34.03,2.42.09,3.23.19.82.1,1.46.25,1.94.46.47.2.97.47,1.5.81,2.71,1.75,4.06,5.59,4.06,11.52v4.35c0,1.68-.02,3.1-.06,4.25-.03,1.14-.11,2.12-.25,2.94-.14.81-.33,1.52-.56,2.13-.24.6-.56,1.2-.96,1.81-.81,1.35-1.8,2.34-2.98,2.98-1.18.64-2.89,1.1-5.1,1.38,2.01.6,3.66,1.22,4.94,1.88,1.29.64,2.3,1.45,3.04,2.42.75.97,1.26,2.14,1.52,3.5.28,1.35.42,3.03.42,5.04v10.42c0,4.11.47,7.89,1.42,11.33h-18.13c-.53-1.75-.9-3.43-1.1-5.04-.2-1.63-.29-3.72-.29-6.29v-9c0-2.15-.41-3.7-1.23-4.65-.81-.94-2.16-1.42-4.04-1.42h-2.33v26.4h-18.1V23.06Zm20.65,26.4c2.08,0,3.46-.36,4.13-1.1.68-.75,1.02-2.3,1.02-4.67,0-2.22-.37-3.77-1.1-4.65-.74-.88-2.08-1.31-4.04-1.31h-2.54v11.73h2.54Z"/>
    <path class="cls-1" d="m439.02,90.52c-4.06,0-7.3-.59-9.73-1.77-2.42-1.18-4.24-3.05-5.46-5.6-.54-1.15-.98-2.32-1.31-3.5-.33-1.18-.6-2.53-.81-4.04-.2-1.51-.35-3.26-.46-5.25-.1-2-.15-4.42-.15-7.25v-12.65c0-2.82.05-5.22.15-7.21.11-2,.26-3.76.46-5.27.21-1.51.48-2.86.81-4.04.33-1.18.77-2.34,1.31-3.5,1.22-2.55,3.04-4.42,5.46-5.6,2.43-1.18,5.67-1.77,9.73-1.77h8.08c4.04,0,7.28.59,9.71,1.77,2.43,1.18,4.25,3.05,5.46,5.6.54,1.16.98,2.32,1.31,3.5.34,1.18.61,2.53.81,4.04.21,1.52.36,3.27.46,5.27.09,1.99.15,4.39.15,7.21v12.65c0,2.83-.05,5.25-.15,7.25-.1,1.99-.25,3.74-.46,5.25-.2,1.52-.47,2.86-.81,4.04-.33,1.18-.77,2.35-1.31,3.5-1.21,2.56-3.03,4.43-5.46,5.6-2.43,1.18-5.67,1.77-9.71,1.77h-8.08Zm7.88-48.15c0-1.61-.35-2.9-1.06-3.88-.71-.98-1.64-1.48-2.77-1.48s-2.08.49-2.79,1.48c-.71.97-1.06,2.27-1.06,3.88v29.02c0,1.7.35,3.02,1.06,3.96.71.95,1.64,1.42,2.79,1.42s2.06-.47,2.77-1.42c.71-.94,1.06-2.26,1.06-3.96v-29.02Z"/>
    <path class="cls-1" d="m470.87,38.43c0-1.63-.04-3.05-.1-4.29-.06-1.25-.16-2.45-.29-3.6-.14-1.15-.31-2.33-.52-3.54-.2-1.21-.46-2.52-.79-3.94h18.29c.28.95.5,1.77.67,2.48s.32,1.39.46,2.02c.14.64.23,1.3.29,1.98.07.67.17,1.47.31,2.42.4-1.75.92-3.19,1.56-4.33.64-1.15,1.43-2.06,2.38-2.73.94-.68,2.13-1.15,3.54-1.42,1.42-.28,3.14-.42,5.17-.42,2.63,0,4.59.14,5.92.42,1.32.27,2.42.77,3.29,1.5.94.74,1.67,1.61,2.17,2.63.5,1.02.98,2.47,1.46,4.35.47-1.75,1.05-3.19,1.73-4.33.68-1.15,1.51-2.06,2.48-2.73.97-.68,2.17-1.15,3.58-1.42,1.42-.28,3.17-.42,5.27-.42,2.48,0,4.52.19,6.1.56,1.59.36,2.84,1.04,3.75,2.02.92.97,1.54,2.33,1.88,4.08s.5,3.98.5,6.69v54.1h-18.1v-45.52c0-2.36-.27-4.01-.81-4.96-.54-.94-1.49-1.42-2.83-1.42s-2.31.47-2.88,1.42c-.57.95-.85,2.6-.85,4.96v45.52h-18.1v-46.63c0-3.57-1.25-5.35-3.75-5.35s-3.65,1.85-3.65,5.56v46.42h-18.1v-52.08Z"/>
    <path class="cls-1" d="m546.42,23.06h29.23c3.18,0,5.65.17,7.4.5s3.03.88,3.83,1.63c1.22,1.07,2.11,2.85,2.69,5.35.57,2.5.85,5.87.85,10.1v5.06c0,4.25-.31,7.83-.92,10.73-.6,2.91-1.44,4.83-2.52,5.77-.47.41-.95.74-1.42,1.02-.47.27-1.06.47-1.77.6-.71.13-1.58.21-2.63.25-1.04.03-2.38.04-4,.04h-12.65v26.4h-18.1V23.06Zm18.1,14.67v11.73h3.04c1.75,0,2.96-.4,3.63-1.21.68-.82,1.02-2.3,1.02-4.46,0-2.29-.37-3.88-1.1-4.75-.74-.88-2.08-1.31-4.04-1.31h-2.54Z"/>
    <path class="cls-1" d="m599.52,37.73h-8.19v-14.67h34.5v14.67h-8.21v52.79h-18.1v-52.79Z"/>
    <path class="cls-1" d="m646.36,90.52c-2.17,0-3.88-.01-5.13-.04-1.24-.04-2.21-.09-2.92-.17-.71-.07-1.25-.11-1.63-.15-.38-.03-.77-.11-1.17-.25-1.42-.4-2.58-1.05-3.5-1.96-.91-.92-1.63-2.27-2.17-4.06s-.92-4.09-1.13-6.92c-.2-2.83-.29-6.41-.29-10.73v-21.54c0-1.01.03-2.15.1-3.4.07-1.25.15-2.48.25-3.69.11-1.22.21-2.35.31-3.4.09-1.04.21-1.86.35-2.48.47-2.36,1.23-4.16,2.27-5.4,1.04-1.25,2.51-2.15,4.4-2.69.4-.07.82-.14,1.25-.21.44-.07,1.02-.13,1.73-.19.71-.07,1.63-.11,2.77-.15,1.15-.04,2.65-.06,4.48-.06h16.88v14.67h-16.69v11.73h16.69v14.67h-16.69v11.73h16.69v14.67h-16.88Z"/>
    <path class="cls-1" d="m669.1,23.06h27.63c2.29,0,4.11.02,5.46.06,1.34.03,2.42.09,3.23.19.82.1,1.46.25,1.94.46.47.2.97.47,1.5.81,2.71,1.75,4.06,5.59,4.06,11.52v4.35c0,1.68-.02,3.1-.06,4.25-.03,1.14-.11,2.12-.25,2.94-.14.81-.33,1.52-.56,2.13-.24.6-.56,1.2-.96,1.81-.81,1.35-1.8,2.34-2.98,2.98-1.18.64-2.89,1.1-5.1,1.38,2.01.6,3.66,1.22,4.94,1.88,1.29.64,2.3,1.45,3.04,2.42.75.97,1.26,2.14,1.52,3.5.28,1.35.42,3.03.42,5.04v10.42c0,4.11.47,7.89,1.42,11.33h-18.13c-.53-1.75-.9-3.43-1.1-5.04-.2-1.63-.29-3.72-.29-6.29v-9c0-2.15-.41-3.7-1.23-4.65-.81-.94-2.16-1.42-4.04-1.42h-2.33v26.4h-18.1V23.06Zm20.65,26.4c2.08,0,3.46-.36,4.13-1.1.68-.75,1.02-2.3,1.02-4.67,0-2.22-.37-3.77-1.1-4.65-.74-.88-2.08-1.31-4.04-1.31h-2.54v11.73h2.54Z"/>
    <rect class="cls-1" x="128.45" y="0" width="1.99" height="125.53"/>
  </g>
</svg>